<svg width="20" height="20" viewBox="0 0 20 20" fill="none" xmlns="http://www.w3.org/2000/svg">
<path d="M19.7161 7.77712C19.5917 7.39239 19.2505 7.11913 18.8468 7.08275L13.3628 6.5848L11.1944 1.50924C11.0345 1.13727 10.6703 0.896484 10.2657 0.896484C9.86113 0.896484 9.49699 1.13727 9.33709 1.51011L7.1686 6.5848L1.68381 7.08275C1.28082 7.12 0.940447 7.39239 0.815345 7.77712C0.690242 8.16185 0.805777 8.58383 1.11063 8.84984L5.25583 12.4852L4.03351 17.8695C3.94406 18.2654 4.09772 18.6747 4.42621 18.9121C4.60277 19.0397 4.80934 19.1046 5.01765 19.1046C5.19726 19.1046 5.37542 19.0562 5.53531 18.9605L10.2657 16.1333L14.9944 18.9605C15.3404 19.1687 15.7766 19.1497 16.1044 18.9121C16.433 18.6739 16.5865 18.2646 16.4971 17.8695L15.2747 12.4852L19.4199 8.85056C19.7248 8.58383 19.8412 8.16257 19.7161 7.77712Z" fill="#888B8D"/>
</svg>
