<svg width="19" height="20" viewBox="0 0 19 20" fill="none" xmlns="http://www.w3.org/2000/svg">
<path d="M18.9505 7.77712C18.8261 7.39239 18.4849 7.11913 18.0811 7.08275L12.5972 6.5848L10.4287 1.50924C10.2688 1.13727 9.90469 0.896484 9.5001 0.896484C9.09551 0.896484 8.73136 1.13727 8.57147 1.51011L6.40298 6.5848L0.918188 7.08275C0.515193 7.12 0.174822 7.39239 0.0497196 7.77712C-0.0753828 8.16185 0.0401521 8.58383 0.345008 8.84984L4.4902 12.4852L3.26788 17.8695C3.17844 18.2654 3.3321 18.6747 3.66058 18.9121C3.83715 19.0397 4.04372 19.1046 4.25203 19.1046C4.43164 19.1046 4.6098 19.0562 4.76969 18.9605L9.5001 16.1333L14.2288 18.9605C14.5748 19.1687 15.011 19.1497 15.3387 18.9121C15.6674 18.6739 15.8209 18.2646 15.7314 17.8695L14.5091 12.4852L18.6543 8.85056C18.9592 8.58383 19.0756 8.16257 18.9505 7.77712Z" fill="#FFC107"/>
</svg>
