<svg xmlns="http://www.w3.org/2000/svg" xmlns:xlink="http://www.w3.org/1999/xlink" width="1280.012" height="720"
    viewBox="450 60 420 420">
    <clipPath id="prefix__a">
        <path transform="matrix(1 0 0 -1 0 540)" d="M0 .028h959.981v539.971H0z" fill-rule="evenodd" />
    </clipPath>
    <g clip-path="url(#prefix__a)">
        <path d="M0 0h959.981v539.972H0V0z" fill="#fff" fill-rule="evenodd" />
        <path d="M0 0h960.009v540H0V0z" fill="#fff" fill-rule="evenodd" />
        <path stroke-width=".737" stroke-linejoin="round" fill="none" stroke="#63666a"
            d="M735.817 82.545c-4.875-2.041-9.864-3.855-14.882-5.499a201.939 201.939 0 00-62.504-9.893v101.168c10.574 0 21.119 1.673 31.238 4.961 2.495.822 4.989 1.729 7.427 2.749l38.721-93.486z" />
        <path stroke-width=".737" stroke-linejoin="round" fill="none" stroke="#63666a"
            d="M801.496 126.397a206.4 206.4 0 00-24.151-20.608 202.3 202.3 0 00-41.528-23.244l-38.721 93.486a100.257 100.257 0 0120.778 11.623 104.375 104.375 0 0112.076 10.289l71.546-71.546z" />
        <path stroke-width=".737" stroke-linejoin="round" fill="none" stroke="#63666a"
            d="M845.348 192.076a202.3 202.3 0 00-23.244-41.528 206.4 206.4 0 00-20.608-24.151l-71.546 71.546a104.375 104.375 0 0110.289 12.076 100.207 100.207 0 0111.622 20.778l93.487-38.721z" />
        <path stroke-width=".737" stroke-linejoin="round" fill="none" stroke="#63666a"
            d="M860.769 269.518c0-21.26-3.345-42.349-9.922-62.561-1.644-5.017-3.458-10.006-5.499-14.881l-93.487 38.721a101.33 101.33 0 012.75 7.427 101.194 101.194 0 014.961 31.294h101.197zM845.348 346.904c2.041-4.876 3.855-9.865 5.499-14.882a201.973 201.973 0 009.922-62.504H759.572c0 10.573-1.673 21.118-4.961 31.238a101.5 101.5 0 01-2.75 7.427l93.487 38.721zM801.496 412.583a206.41 206.41 0 0020.608-24.152 202.292 202.292 0 0023.244-41.527l-93.487-38.721a100.207 100.207 0 01-11.622 20.778 104.366 104.366 0 01-10.289 12.075l71.546 71.547zM735.817 456.435a202.346 202.346 0 0041.528-23.244 206.591 206.591 0 0024.151-20.608l-71.546-71.547a104.286 104.286 0 01-12.076 10.29 100.253 100.253 0 01-20.778 11.622l38.721 93.487z" />
        <path stroke-width=".737" stroke-linejoin="round" fill="none" stroke="#63666a"
            d="M658.403 471.855a202.04 202.04 0 0062.532-9.921c5.018-1.644 10.007-3.458 14.882-5.499l-38.721-93.487a101.33 101.33 0 01-7.427 2.75 101.105 101.105 0 01-31.238 4.96l-.028 101.197zM580.989 456.435c4.876 2.041 9.865 3.855 14.882 5.499a202.045 202.045 0 0062.532 9.921V370.658a101.158 101.158 0 01-31.266-4.96 101.5 101.5 0 01-7.427-2.75l-38.721 93.487zM515.31 412.583a206.674 206.674 0 0024.151 20.608 202.372 202.372 0 0041.528 23.244l38.721-93.487a100.253 100.253 0 01-20.778-11.622 104.276 104.276 0 01-12.075-10.29l-71.547 71.547z" />
        <path stroke-width=".737" stroke-linejoin="round" fill="none" stroke="#63666a"
            d="M471.458 346.904a202.339 202.339 0 0023.244 41.527 206.601 206.601 0 0020.608 24.152l71.547-71.547a104.276 104.276 0 01-10.29-12.075 100.253 100.253 0 01-11.622-20.778l-93.487 38.721z" />
        <path stroke-width=".737" stroke-linejoin="round" fill="none" stroke="#63666a"
            d="M456.066 269.49c0 21.231 3.317 42.321 9.893 62.532 1.644 5.017 3.458 10.006 5.499 14.882l93.487-38.721a101.5 101.5 0 01-2.75-7.427 101.158 101.158 0 01-4.96-31.266H456.066z" />
        <path stroke-width=".737" stroke-linejoin="round" fill="none" stroke="#63666a"
            d="M471.458 192.076c-2.041 4.875-3.855 9.864-5.499 14.881a202.023 202.023 0 00-9.893 62.533h101.169c0-10.602 1.672-21.147 4.96-31.266a101.33 101.33 0 012.75-7.427l-93.487-38.721z" />
        <path stroke-width=".737" stroke-linejoin="round" fill="none" stroke="#63666a"
            d="M515.31 126.397a206.591 206.591 0 00-20.608 24.151 202.346 202.346 0 00-23.244 41.528l93.487 38.721a100.253 100.253 0 0111.622-20.778 104.286 104.286 0 0110.29-12.076l-71.547-71.546zM580.989 82.545a202.325 202.325 0 00-41.528 23.244 206.481 206.481 0 00-24.151 20.608l71.547 71.546a104.366 104.366 0 0112.075-10.289 100.257 100.257 0 0120.778-11.623l-38.721-93.486zM658.431 67.153c-21.259 0-42.349 3.316-62.56 9.893-5.017 1.644-10.006 3.458-14.882 5.499l38.721 93.486a101.954 101.954 0 017.427-2.749 101.203 101.203 0 0131.294-4.961V67.153z" />
       </g>
    <g clip-path="url(#prefix__n)"><text fill="#63666a" transform="translate(0 540)" font-size="7.002"
            font-family="DejaVuSans">
            <tspan y="-448.696" x="666.113 670.517 675.314 679.515 684.318 688.723 693.218 697.622 702.117">EXPRESSEW
            </tspan>
        </text><text fill="#63666a" transform="translate(0 540)" font-size="4.11" font-family="DejaVuSans">
            <tspan y="-450.794" x="708.888">®</tspan>
        </text><text fill="#63666a" transform="translate(0 540)" font-size="7.002" font-family="DejaVuSans">
            <tspan y="-448.696" x="712.998 715.099 717.192 719.195 721.197">III</tspan>
        </text><text fill="#63666a" transform="translate(0 540)" font-size="7.002" font-family="DejaVuSans">
            <tspan y="-440.306"
                x="666.113 670.811 675.307 678.009 682.302 686.104 690.396 694.891 697.594 702.089 704.792 709.091 714.987">
                Autocapture+</tspan>
        </text><text fill="#63666a" transform="translate(0 540)" font-size="7.002" font-family="DejaVuSans">
            <tspan y="-431.887"
                x="666.113 670.013 671.911 676.112 680.215 682.113 686.608 688.505 692.805 695.003 699.408 703.903 706.606 711.101 713.803 718.103">
                Flexible Suture</tspan>
        </text><text fill="#63666a" transform="translate(0 540)" font-size="7.002" font-family="DejaVuSans">
            <tspan y="-423.609" x="666.113 669.915 674.207 677.806 681.405 685.705">Passer</tspan>
        </text><text fill="#63666a" transform="translate(0 540)" font-size="7.002" font-family="DejaVuSans">
            <tspan y="-106.611" x="596.806 601.105 606 610.201 614.899 617.098 621.894 626.999">VAPR VUE</tspan>
        </text><text fill="#63666a" transform="translate(0 540)" font-size="4.11" font-family="DejaVuSans">
            <tspan y="-108.709" x="631.389">®</tspan>
        </text><text fill="#63666a" transform="translate(0 540)" font-size="7.002" font-family="DejaVuSans">
            <tspan y="-106.611" x="635.499"></tspan>
        </text><text fill="#63666a" transform="translate(0 540)" font-size="7.002" font-family="DejaVuSans">
            <tspan y="-98.192"
                x="596.806 601.504 605.797 610.292 612.189 616.391 618.792 621.593 625.892 630.297 634.792 639.091 643.495 647.297 651.4">
                Radiofrequency</tspan>
        </text><text fill="#63666a" transform="translate(0 540)" font-size="7.002" font-family="DejaVuSans">
            <tspan y="-89.802" x="596.806 601.301 603.199 607.498 611.3 614.094 616.895 621.096 625.5 629.799">Electrode
            </tspan>
        </text><text fill="#63666a" transform="translate(0 540)" font-size="7.002" font-family="DejaVuSans">
            <tspan y="-81.411" x="596.806 601.301 605.404 609.004 611.706 616.006">System</tspan>
        </text><text fill="#63666a" transform="translate(0 540)" font-size="7.002" font-family="DejaVuSans">
            <tspan y="-109.191" x="663.902">FMS VUE</tspan>
        </text><text fill="#63666a" transform="translate(0 540)" font-size="4.11" font-family="DejaVuSans">
            <tspan y="-111.288" x="694.687">®</tspan>
        </text><text fill="#63666a" transform="translate(0 540)" font-size="7.002" font-family="DejaVuSans">
            <tspan y="-109.191" x="698.797">II</tspan>
        </text><text fill="#63666a" transform="translate(0 540)" font-size="7.002" font-family="DejaVuSans">
            <tspan y="-100.913"
                x="663.902">
                Fluid Management</tspan>
        </text><text fill="#63666a" transform="translate(0 540)" font-size="7.002" font-family="DejaVuSans">
            <tspan y="-92.494" x="663.902">&amp; Tissue
            </tspan>
        </text><text fill="#63666a" transform="translate(0 540)" font-size="7.002" font-family="DejaVuSans">
            <tspan y="-84.104"
                x="663.902">
                Debridement</tspan>
        </text><text fill="#63666a" transform="translate(0 540)" font-size="7.002" font-family="DejaVuSans">
            <tspan y="-75.713" x="663.902">System</tspan>
        </text>
        <path stroke-width="20.012" stroke-linecap="round" stroke-linejoin="round" fill="none" stroke="#003a5d"
            d="M571.691 296.844h.029l-1.276-4.45-.992-4.536-.794-4.535-.538-4.592-.312-4.649-.114-4.621.142-4.62.397-4.621.595-4.592.851-4.563 1.049-4.479 1.303-4.451 1.503-4.393 1.757-4.281 1.956-4.195 2.155-4.11 2.352-3.969 2.58-3.826 2.721-3.714 2.948-3.571 3.118-3.43 3.288-3.232 3.43-3.09 3.572-2.891 3.713-2.693 3.884-2.494 3.968-2.325 4.082-2.097 4.196-1.9 4.308-1.672" />
        <path stroke-width="20.012" stroke-linecap="round" stroke-linejoin="round" fill="none" stroke="#c8102e"
            d="M628.98 183.685v.028l4.45-1.445 4.507-1.219 4.564-.964 4.62-.737 4.649-.51 4.649-.255h4.677l4.649.226 4.649.482 4.62.709 4.564.935 4.535 1.191 4.422 1.446 4.394 1.644 4.28 1.871 4.167 2.097 4.054 2.325 3.94 2.522 3.799 2.722 3.656 2.919 3.515 3.09 3.345 3.288 3.175 3.43" />
        <path stroke-width="20.012" stroke-linecap="round" stroke-linejoin="round" fill="none" stroke="#0088ce"
            d="M702.028 349.228v-.028l-4.167 2.183-4.252 1.984-4.365 1.729-4.45 1.502-4.507 1.248-4.564 1.048-4.621.794-4.648.539-4.678.312-4.677.056-4.677-.198-4.677-.425-4.621-.681-4.592-.907-4.535-1.162-4.479-1.389-4.394-1.644-4.308-1.843-4.224-2.097-4.082-2.296-3.968-2.495-3.855-2.721-3.685-2.891-3.544-3.118" />
        <path
            d="M664.98 179.858c-.029.822-.397 1.446-1.049 1.871-.681.454-1.588.624-2.75.539-2.211-.085-3.43-.936-3.713-2.438l1.19-.199c.142.539.369.936.822 1.248.426.255 1.021.425 1.758.482.822.028 1.389-.085 1.842-.341.454-.255.681-.623.709-1.133a1.146 1.146 0 00-.17-.737c-.113-.199-.312-.341-.539-.482a2.937 2.937 0 00-.85-.34c-.312-.114-.709-.199-1.077-.312-.709-.199-1.276-.369-1.588-.567a2.305 2.305 0 01-.822-.539 2.275 2.275 0 01-.482-.708 2.995 2.995 0 01-.113-.879c.028-.794.34-1.361.992-1.758.567-.396 1.417-.538 2.523-.482.992.057 1.786.256 2.296.567.539.341.85.907 1.049 1.644l-1.191.171c-.113-.511-.368-.851-.708-1.078a3.521 3.521 0 00-1.503-.396c-.737-.057-1.275.085-1.672.283-.397.227-.595.567-.624 1.02a.893.893 0 00.199.681c.113.227.34.368.595.51.283.142.794.312 1.616.539.283.085.567.17.822.255.255.085.538.17.765.255.255.085.482.227.709.368.227.142.368.284.51.454.198.198.283.425.368.652.057.255.114.538.086.85zm1.87-2.976c.284-.425.624-.737.993-.907.368-.142.822-.199 1.36-.142.737.085 1.247.34 1.559.737.284.397.397 1.021.312 1.928l-.567 4.535-1.134-.113.539-4.366a3.207 3.207 0 00-.029-1.077 1.056 1.056 0 00-.34-.567c-.198-.141-.482-.198-.85-.227-.539-.085-.992.057-1.361.397-.34.312-.567.822-.652 1.418l-.482 4.025-1.133-.142 1.133-9.383 1.134.142-.283 2.466c-.057.255-.085.511-.142.766-.028.311-.057.425-.085.482l.028.028zm10.517 3.912c-.227 1.19-.652 2.041-1.276 2.523-.652.481-1.474.595-2.437.425-.993-.199-1.673-.652-2.07-1.333-.397-.708-.453-1.615-.227-2.749.454-2.353 1.701-3.317 3.714-2.948 1.02.198 1.729.652 2.126 1.304.368.68.425 1.587.17 2.778zm-1.162-.199c.17-.964.198-1.672 0-2.126-.199-.482-.624-.765-1.276-.907-.652-.142-1.19-.028-1.587.34-.369.397-.624 1.049-.794 1.956-.17.907-.17 1.616.028 2.098.199.482.624.822 1.248.935.623.114 1.19 0 1.559-.368.368-.397.623-1.021.822-1.928zm3.571-2.693l-1.105 4.224c-.114.454-.142.794-.17 1.049.028.283.113.482.283.623.17.171.425.284.794.397.539.142.964.029 1.389-.226.425-.284.737-.766.907-1.389l.992-3.856 1.106.284-1.389 5.216c-.199.765-.312 1.247-.312 1.445l-1.049-.255c0-.028 0-.113.028-.198 0-.085.029-.199.057-.312 0-.113.057-.34.142-.68h-.029c-.368.396-.737.652-1.133.765-.369.113-.794.085-1.304-.057-.737-.17-1.191-.51-1.474-.963-.227-.426-.227-1.078 0-1.9l1.162-4.45 1.105.283zm3.232 8.022l2.976-8.957 1.077.368-2.976 8.958-1.077-.369zm6.491 1.163c-.312.34-.68.51-1.105.567-.397.056-.822 0-1.333-.171-.793-.311-1.275-.822-1.445-1.502-.199-.68-.114-1.587.312-2.693.822-2.239 2.041-3.061 3.6-2.494.51.198.878.397 1.133.737.256.312.426.68.482 1.134l.255-.709 1.021-2.693 1.049.397-2.778 7.54c-.284.652-.397 1.106-.454 1.332l-1.049-.368c.029-.085.085-.227.17-.482.057-.227.114-.425.171-.595h-.029zm-2.409-3.402c-.34.907-.482 1.559-.369 2.069.085.482.397.794.936.992.623.227 1.134.171 1.559-.141.453-.34.822-.907 1.134-1.786.34-.85.396-1.531.311-2.041-.17-.51-.51-.85-1.133-1.077-.539-.199-.993-.17-1.389.142-.369.311-.737.935-1.049 1.842zm5.726 2.409c-.312.737-.425 1.361-.312 1.871.142.539.453.936 1.049 1.191.425.198.878.255 1.219.198a1.72 1.72 0 00.85-.425l.794.652c-.794.85-1.899.936-3.203.34-.936-.425-1.531-1.02-1.758-1.757-.227-.766-.085-1.701.397-2.807.482-1.048 1.077-1.757 1.814-2.069.737-.34 1.531-.312 2.438.085 1.814.851 2.239 2.381 1.247 4.649l-.057.085-4.478-2.013zm3.741.737c.256-.68.284-1.247.171-1.672-.142-.425-.482-.765-1.021-.992-.482-.227-.992-.227-1.417-.028-.482.198-.822.567-1.106 1.19l3.373 1.502zm-.141 4.479l2.381-4.677c.227-.453.453-.935.709-1.502l.963.538c-.34.737-.538 1.134-.623 1.276h.028c.454-.454.794-.709 1.134-.794.312-.057.623 0 1.02.17.142.057.284.17.369.284l-.482.935a1.923 1.923 0 00-.482-.34c-.425-.227-.879-.227-1.276.057-.396.255-.765.708-1.133 1.389l-1.616 3.174-.992-.51zM633.572 351.071c-.936-.284-1.815-.199-2.495.255-.68.454-1.19 1.219-1.502 2.296-.284 1.049-.255 1.984.085 2.778.368.794 1.02 1.332 1.956 1.616 1.219.368 2.267 0 3.231-1.021l.822.766c-.567.623-1.219 1.048-1.984 1.247a4.378 4.378 0 01-2.409-.057c-.851-.255-1.559-.652-2.07-1.19-.567-.539-.85-1.219-1.02-1.985-.142-.765-.085-1.587.17-2.494.397-1.389 1.077-2.353 2.041-2.891.992-.596 2.097-.681 3.43-.284.907.255 1.644.68 2.154 1.191.51.51.794 1.19.879 1.956l-1.191.085c-.085-.567-.283-1.049-.652-1.418-.368-.425-.85-.68-1.445-.85zm4.053 9.439c-.708-.113-1.162-.368-1.417-.793-.284-.426-.34-.964-.199-1.588.114-.709.454-1.219.964-1.474.539-.283 1.304-.368 2.325-.17l1.559.255.056-.368c.114-.539.029-.964-.141-1.248-.142-.255-.511-.425-.992-.538-.511-.114-.908-.085-1.163.028a1.227 1.227 0 00-.595.737l-1.134-.34c.425-1.191 1.474-1.616 3.062-1.276.85.171 1.474.482 1.814.964.368.454.425 1.077.283 1.786l-.567 2.948c-.056.312-.056.567 0 .765.057.171.199.284.454.341a.814.814 0 00.368 0l-.141.708c-.284.057-.567 0-.879-.056-.425-.085-.709-.227-.822-.482-.142-.284-.227-.652-.142-1.106h-.028c-.425.454-.822.737-1.219.879a2.49 2.49 0 01-1.446.028zm.397-.765c.425.085.822.028 1.162-.057.34-.142.652-.312.936-.623a2.59 2.59 0 00.482-.964l.085-.539-1.248-.227c-.51-.113-.935-.141-1.219-.085-.283.057-.51.142-.708.341-.17.198-.34.425-.397.765-.085.368 0 .709.142.935.17.227.397.369.765.454zm10.772-1.134c-.312 2.409-1.276 3.487-2.948 3.288-1.077-.142-1.729-.623-1.956-1.445h-.057c0 .028-.028.396-.113 1.077l-.284 2.664-1.134-.141.964-8.108c.085-.708.114-1.19.142-1.417l1.077.142v.198c0 .085-.028.255-.057.482.029.199 0 .34 0 .425h.029c.226-.396.538-.68.878-.822.369-.17.794-.198 1.333-.113.85.085 1.474.453 1.814 1.077.368.595.453 1.502.312 2.693zm-1.191-.113c.114-.936.057-1.644-.142-2.07-.198-.453-.595-.68-1.162-.765-.425-.057-.822.028-1.077.17-.283.142-.51.397-.709.822-.17.369-.311.879-.396 1.531-.086.879-.029 1.587.226 2.041.227.453.652.708 1.304.793.567.057.992-.085 1.304-.481.312-.397.539-1.049.652-2.041zm2.495-4.649l.085-1.106 1.134.085-.086 1.106-1.133-.085zm-.567 8.334l.482-6.889 1.133.086-.481 6.859-1.134-.056zm5.357.198a7.683 7.683 0 01-1.162.085c-.935 0-1.332-.538-1.332-1.616l.141-4.563h-.793l.028-.851.85.029.369-1.531.737.028-.028 1.559h1.275l-.028.822-1.276-.028-.141 4.337c.028.34.056.595.17.709.113.17.255.198.567.226.141 0 .368-.028.652-.085l-.029.879zm2.381.113c-.68 0-1.219-.141-1.559-.51-.34-.368-.51-.907-.538-1.502 0-.709.226-1.276.68-1.644.454-.397 1.219-.624 2.239-.681l1.559-.028v-.368c0-.596-.17-.964-.396-1.191-.227-.255-.596-.397-1.106-.368-.51 0-.907.113-1.134.283-.227.17-.34.454-.425.85l-1.191-.113c.199-1.219 1.134-1.899 2.75-1.899.85-.029 1.531.17 1.956.567.453.397.652.964.68 1.701l.029 2.976c.028.34.085.595.17.765.113.17.255.284.51.255.113 0 .227-.028.397-.056v.708a4.707 4.707 0 01-.879.142c-.425 0-.737-.142-.935-.34-.199-.227-.312-.567-.341-1.049l-.028.028c-.312.511-.652.879-1.02 1.106-.397.227-.851.34-1.418.368zm.255-.85a2.652 2.652 0 001.106-.312 1.79 1.79 0 00.765-.822c.199-.34.284-.68.284-1.02l-.029-.567-1.247.057c-.538 0-.935.085-1.219.141a1.39 1.39 0 00-.623.51c-.142.199-.227.482-.199.823 0 .396.114.68.312.878.198.199.482.312.85.312zm5.018.624l-.794-9.411 1.106-.114.822 9.411-1.134.114zM578.665 239.187l-5.245 1.985.454 1.417 3.232 1.105-.369 1.134-8.476-2.919.369-1.134 4.224 1.474-2.807-5.556.454-1.361 2.438 4.848 6.207-2.438-.481 1.445zm2.154-5.414l-3.997-1.701c-.425-.17-.765-.255-1.02-.283-.284 0-.482.057-.652.198-.199.114-.341.369-.511.709-.198.482-.198.964 0 1.417.227.426.681.794 1.276 1.049l3.657 1.588-.454 1.02-4.961-2.126a12.41 12.41 0 00-1.388-.51l.425-1.021c.028.029.085.029.198.085.085.029.199.057.312.085.085.057.312.142.624.256v-.029c-.341-.397-.539-.822-.596-1.219-.056-.368.057-.85.255-1.304.284-.68.709-1.133 1.163-1.304.481-.17 1.133-.085 1.899.256l4.223 1.814-.453 1.02zm-1.673-3.883c.709.34 1.304.482 1.843.397.539-.114.935-.397 1.247-.993.227-.425.312-.85.284-1.19-.057-.369-.199-.624-.397-.879l.708-.737c.794.851.823 1.928.142 3.203-.482.907-1.105 1.446-1.871 1.644-.765.227-1.7 0-2.749-.538-1.049-.539-1.644-1.162-1.956-1.928-.312-.737-.227-1.53.227-2.409.907-1.814 2.494-2.126 4.677-.992l.113.056-2.268 4.366zm.936-3.714c-.68-.311-1.219-.34-1.644-.255-.454.142-.822.425-1.077.936-.255.482-.284.992-.085 1.417.17.51.538.85 1.105 1.191l1.701-3.289zm2.126-1.956c.68.397 1.275.567 1.786.539.538-.085.992-.34 1.332-.907.255-.425.368-.85.34-1.191a1.622 1.622 0 00-.312-.878l.766-.709c.708.907.68 1.984-.085 3.232-.539.85-1.219 1.36-1.985 1.502-.765.142-1.672-.085-2.693-.737-.992-.595-1.587-1.276-1.842-2.041-.255-.737-.113-1.531.397-2.381 1.049-1.729 2.608-1.984 4.734-.68l.113.056-2.551 4.195zm1.162-3.628c-.652-.34-1.19-.425-1.616-.397-.453.114-.85.397-1.134.879-.311.482-.368.964-.198 1.417.142.482.482.907 1.049 1.276l1.899-3.175z"
            fill="#fff" fill-rule="evenodd" /><text fill="#63666a" transform="translate(0 540)" font-size="7.002"
            font-family="DejaVuSans">
            <tspan y="-129.005" x="540.507">PUREVUE</tspan>
        </text><text fill="#63666a" transform="translate(0 540)" font-size="4.11" font-family="DejaVuSans">
            <tspan y="-131.102" x="573.191">®</tspan>
        </text><text fill="#63666a" transform="translate(0 540)" font-size="7.002" font-family="DejaVuSans">
            <tspan y="-120.586"
                x="540.507">
                Visualization</tspan>
        </text><text fill="#63666a" transform="translate(0 540)" font-size="7.002" font-family="DejaVuSans">
            <tspan y="-112.195" x="540.507">System</tspan>
        </text><text fill="#63666a" transform="translate(0 540)" font-size="7.002" font-family="DejaVuSans">
            <tspan y="-342.794" x="751.294 756.195 760.397 765.599 770.298 774.996 780.59 785.394">DYNACORD</tspan>
        </text><text fill="#63666a" transform="translate(0 540)" font-size="4.11" font-family="DejaVuSans">
            <tspan y="-344.891" x="790.809">™</tspan>
        </text><text fill="#63666a" transform="translate(0 540)" font-size="7.002" font-family="DejaVuSans">
            <tspan y="-342.794" x="794.891"></tspan>
        </text><text fill="#63666a" transform="translate(0 540)" font-size="7.002" font-family="DejaVuSans">
            <tspan y="-334.403" x="751.294 755.698 760.193 762.896 767.392 770.094 774.491">Sutures</tspan>
        </text><text fill="#63666a" transform="translate(0 540)" font-size="7.002" font-family="LiberationSans">
            <tspan y="-205.909" x="744.491 749.588 754.189 759.286 764.986 766.981 771.582 773.479 778.976 783.975">
                DERMIS ON</tspan>
        </text><text fill="#63666a" transform="translate(0 540)" font-size="7.002" font-family="LiberationSans">
            <tspan y="-197.49" x="744.491 749.588 754.189 759.993 764.685 769.684">DEMAND</tspan>
        </text><text fill="#63666a" transform="translate(0 540)" font-size="4.11" font-family="LiberationSans">
            <tspan y="-199.587" x="774.794">™</tspan>
        </text><text fill="#63666a" transform="translate(0 540)" font-size="7.002" font-family="LiberationSans">
            <tspan y="-197.49" x="778.791"></tspan>
        </text><text fill="#63666a" transform="translate(0 540)" font-size="7.002" font-family="LiberationSans">
            <tspan y="-189.213" x="744.491 749.182 750.779 752.277 756.17 759.972 762.276 766.078 767.976">Allograft
            </tspan>
        </text><text fill="#63666a" transform="translate(0 540)" font-size="7.002" font-family="DejaVuSans">
            <tspan y="-452.806"
                x="591.987 597.189 601.685 606.481 610.283 612.377 617.173 619.274 624.07 629.371 633.67 638.466 643.669 648.472">
                HEALIX ADVANCE</tspan>
        </text><text fill="#63666a" transform="translate(0 540)" font-size="4.11" font-family="DejaVuSans">
            <tspan y="-454.904" x="652.904">™</tspan>
        </text><text fill="#63666a" transform="translate(0 540)" font-size="7.002" font-family="DejaVuSans">
            <tspan y="-452.806" x="657.014"></tspan>
        </text><text fill="#63666a" transform="translate(0 540)" font-size="7.002" font-family="DejaVuSans">
            <tspan y="-444.387"
                x="591.987 596.391 600.69 602.588 604.689 607.188 611.292 615.696 620.191 623.993 628.397 630.393 634.797 639.202">
                Self-Punching</tspan>
        </text><text fill="#63666a" transform="translate(0 540)" font-size="7.002" font-family="DejaVuSans">
            <tspan y="-436.11" x="591.987 596.685 601.181 604.983 609.478 613.679 616.571">Anchors</tspan>
        </text><text fill="#63666a" transform="translate(0 540)" font-size="7.002" font-family="DejaVuSans">
            <tspan y="-422.391" x="733.493 737.589 741.79 745.494 750.291 755.094 757.188 761.592 765.793">LATARJET
            </tspan>
        </text><text fill="#63666a" transform="translate(0 540)" font-size="7.002" font-family="DejaVuSans">
            <tspan y="-414" x="733.493 737.988 742.785 746.986 751.39 756.194 758.196 762.691 767.796 772.599">
                EXPERIENCE</tspan>
        </text><text fill="#63666a" transform="translate(0 540)" font-size="7.002" font-family="DejaVuSans">
            <tspan y="-225.003" x="470.693 474.894 481.693 483.696 488.191 492.392">TWISTR</tspan>
        </text><text fill="#63666a" transform="translate(0 540)" font-size="4.11" font-family="DejaVuSans">
            <tspan y="-228.101" x="497.197">™</tspan>
        </text><text fill="#63666a" transform="translate(0 540)" font-size="7.002" font-family="DejaVuSans">
            <tspan y="-225.003" x="501.307"></tspan>
        </text><text fill="#63666a" transform="translate(0 540)" font-size="7.002" font-family="DejaVuSans">
            <tspan y="-216.613"
                x="470.693 475.195 479.495 482.288 485.089 489.29 493.695 496.586 500.879 505.283 509.68">Retrograde
            </tspan>
        </text><text fill="#63666a" transform="translate(0 540)" font-size="7.002" font-family="DejaVuSans">
            <tspan y="-208.194" x="470.693 475.195 479.495 483.892 490.593 494.892">Reamer</tspan>
        </text><text fill="#63666a" transform="translate(0 540)" font-size="7.002" font-family="DejaVuSans">
            <tspan y="-292.907" x="461.509 466.312 468.315 473.713 475.807 481.199 484.798 490.301 495.805">RIGIDLOOP
            </tspan>
        </text><text fill="#63666a" transform="translate(0 540)" font-size="4.11" font-family="DejaVuSans">
            <tspan y="-295.005" x="500.003">®</tspan>
        </text><text fill="#63666a" transform="translate(0 540)" font-size="7.002" font-family="DejaVuSans">
            <tspan y="-292.907" x="504.113"></tspan>
        </text><text fill="#63666a" transform="translate(0 540)" font-size="7.002" font-family="DejaVuSans">
            <tspan y="-284.488"
                x="461.509 466.207 470.612 472.509 477.004 480.603 483.306 487.598 492.094 493.991 498.291 500.489 505.293 509.494 512.385 515.088 516.986 520.879 525.171 527.069">
                Adjustable Cortical</tspan>
        </text><text fill="#63666a" transform="translate(0 540)" font-size="7.002" font-family="DejaVuSans">
            <tspan y="-276.098" x="461.509 465.913 470.016 473.615 476.409 480.709">System</tspan>
        </text>
        <mask id="prefix__p">
            <use xlink:href="#prefix__o" width="93" height="53" transform="matrix(.78852 0 0 .78032 710.249 127.163)" />
        </mask>
       <text fill="#63666a" transform="translate(0 540)" font-size="7.002" font-family="DejaVuSans">
            <tspan y="-377.291" x="494.702 499.106 503.307 507.712 512.207 517.599 521.8 526.4 531.197">SPEEDTRAP
            </tspan>
        </text><text fill="#63666a" transform="translate(0 540)" font-size="4.11" font-family="DejaVuSans">
            <tspan y="-379.389" x="535.408">™</tspan>
        </text><text fill="#63666a" transform="translate(0 540)" font-size="7.002" font-family="DejaVuSans">
            <tspan y="-377.291" x="539.405"></tspan>
        </text><text fill="#63666a" transform="translate(0 540)" font-size="7.002" font-family="DejaVuSans">
            <tspan y="-368.901" x="494.702 500.101 502.992 507.285 509.588 512.291">Graft</tspan>
        </text><text fill="#63666a" transform="translate(0 540)" font-size="7.002" font-family="DejaVuSans">
            <tspan y="-360.51"
                x="494.702 498.805 501.508 505.807 510.302 514.595 517.486 521.779 524.573 526.47 530.671 535.076">
                Preparation</tspan>
        </text><text fill="#63666a" transform="translate(0 540)" font-size="7.002" font-family="DejaVuSans">
            <tspan y="-352.091" x="494.702 499.106 503.209 506.808 509.602 513.902">System</tspan>
        </text><text fill="#63666a" transform="translate(0 540)" font-size="7.002" font-family="DejaVuSans">
            <tspan y="-425.112" x="538.611 542.714 547.609 552.608 557.012 561.508 565.212 570.008">TRUESPAN</tspan>
        </text><text fill="#63666a" transform="translate(0 540)" font-size="4.11" font-family="DejaVuSans">
            <tspan y="-427.209" x="575.093">™</tspan>
        </text><text fill="#63666a" transform="translate(0 540)" font-size="7.002" font-family="DejaVuSans">
            <tspan y="-425.112" x="579.203"></tspan>
        </text><text fill="#63666a" transform="translate(0 540)" font-size="7.002" font-family="DejaVuSans">
            <tspan y="-416.693"
                x="538.611 544.612 548.911 553.315 555.213 558.812 562.705 566.997 568.895 571.093 575.596 579.993 584.397 588.689 590.587 593.479">
                Meniscal Repair</tspan>
        </text><text fill="#63666a" transform="translate(0 540)" font-size="7.002" font-family="DejaVuSans">
            <tspan y="-408.387" x="538.611 543.015 547.118 550.717 553.42 557.72">System</tspan>
        </text>
       <text fill="#63666a" transform="translate(0 540)" font-size="7.002" font-family="DejaVuSans">
            <tspan y="-131.386"
                x="728.107">Coll-e-Derm
            </tspan>
        </text><text fill="#63666a" transform="translate(0 540)" font-size="4.11" font-family="DejaVuSans">
            <tspan y="-133.512" x="764.493">™</tspan>
        </text><text fill="#63666a" transform="translate(0 540)" font-size="7.002" font-family="DejaVuSans">
            <tspan y="-131.386" x="770.603">RT</tspan>
        </text><text fill="#63666a" transform="translate(0 540)" font-size="7.002" font-family="DejaVuSans">
            <tspan y="-123.109" x="728.107">Allograft
            </tspan>
        </text><text fill="#63666a" transform="translate(0 540)" font-size="7.002" font-family="DejaVuSans">
            <tspan y="-284.287" x="760.904">DYNATAPE</tspan>
        </text><text fill="#63666a" transform="translate(0 540)" font-size="4.11" font-family="DejaVuSans">
            <tspan y="-286.413" x="796.507">™</tspan>
        </text><text fill="#63666a" transform="translate(0 540)" font-size="7.002" font-family="DejaVuSans">
            <tspan y="-284.287"
                x="804.589">
                Sutures on</tspan>
        </text><text fill="#63666a" transform="translate(0 540)" font-size="7.002" font-family="DejaVuSans">
            <tspan y="-275.896"
                x="760.904">
                HEALIX ADVANCE™ Anchors</tspan>
        </text><text fill="#63666a" transform="translate(0 540)" font-size="7.002" font-family="DejaVuSans">
            <tspan y="-256.592"
                x="775.701 780.196 784.299 786.603 789.397 791.497 795.601 797.498 801.097 804.696 809.192 813.491">Soft
                Tissue</tspan>
        </text><text fill="#63666a" transform="translate(0 540)" font-size="7.002" font-family="DejaVuSans">
            <tspan y="-248.287" x="775.701 780.497 782.395 784.293 788.494 792.989 795.881 800.173 802.477 805.179">
                Allografts</tspan>
        </text>
        <path stroke-width="20.012" stroke-linecap="round" stroke-linejoin="round" fill="none" stroke="#c800a1"
            d="M730.715 214.781l-.057.028 2.466 3.345 2.24 3.43 2.126 3.572 1.956 3.6 1.814 3.742 1.587 3.77 1.446 3.883 1.276 3.94 1.105 3.94.935 4.026.709 4.053.539 4.11.368 4.111.17 4.11v4.139" />
        <path stroke-width="20.012" stroke-linecap="round" stroke-linejoin="round" fill="none" stroke="#63666a"
            d="M748.97 277.455h-.028l-.511 4.649-.708 4.62-.964 4.564-1.19 4.507-1.446 4.451-1.673 4.393-1.87 4.252-2.126 4.196-2.325 4.053-2.523 3.94-2.749 3.799-2.92 3.656-3.118 3.487-3.288 3.345-3.459 3.146-3.628 2.977-3.77 2.806-3.912 2.58-4.025 2.381-4.167 2.182" />
        <path
            d="M740.154 233.773c-.652.454-1.332.624-2.097.369-.766-.284-1.474-.907-2.155-1.843-1.275-1.757-1.389-3.26-.368-4.422l.879.822c-.369.425-.511.879-.454 1.389.028.51.284 1.077.709 1.673.482.652.963 1.048 1.417 1.247.482.198.907.142 1.332-.17.227-.17.397-.34.454-.567.085-.199.085-.454.057-.709a4.692 4.692 0 00-.284-.907c-.113-.283-.255-.652-.453-1.049-.227-.652-.454-1.19-.539-1.587-.085-.369-.113-.68-.085-.964.028-.312.142-.567.283-.822.142-.227.341-.453.624-.652.652-.453 1.276-.567 1.956-.312.68.199 1.332.794 1.984 1.701.567.794.907 1.531.992 2.154.029.596-.17 1.219-.652 1.843l-.878-.85c.311-.397.425-.794.396-1.191-.056-.425-.255-.935-.623-1.474-.397-.567-.851-.935-1.276-1.106-.397-.198-.793-.141-1.162.142a1.015 1.015 0 00-.425.567c-.057.227-.057.51-.029.794.057.312.284.85.596 1.587.141.284.227.539.34.794.085.255.198.539.255.765.085.284.113.539.17.766 0 .283 0 .51-.057.737-.028.226-.141.453-.283.652a2.17 2.17 0 01-.624.623zm4.621-.595l-3.912 1.928c-.425.17-.709.396-.879.566-.227.199-.312.397-.312.624-.028.227.057.51.227.85.255.511.624.794 1.106.908.453.141 1.02.028 1.587-.256l3.572-1.785.51 1.02-4.847 2.41a9.374 9.374 0 00-1.304.708l-.482-.964c.028-.028.085-.056.17-.141.085 0 .17-.085.283-.114.086-.085.312-.17.596-.34l-.029-.028c-.538 0-.963-.114-1.304-.34a2.471 2.471 0 01-.793-1.021c-.369-.68-.425-1.275-.255-1.757.17-.454.652-.907 1.445-1.276l4.111-2.041.51 1.049zm-3.09 10.063c-.198-.34-.397-.68-.51-1.077-.312-.851 0-1.418.992-1.814l4.309-1.531-.256-.765.766-.284.283.822 1.531-.227.283.737-1.445.482.453 1.219-.793.284-.454-1.219-4.053 1.474c-.341.141-.539.255-.596.425-.113.142-.113.312-.028.595.057.114.17.312.312.567l-.794.312zm6.888-.567l-4.252.964a3.51 3.51 0 00-.964.397c-.255.17-.396.34-.453.567-.057.198-.028.481.028.85.142.539.425.907.879 1.134.425.255.992.255 1.616.113l3.883-.907.284 1.106-5.273 1.219c-.765.198-1.247.311-1.417.396l-.255-1.048c.028 0 .085-.029.17-.085.113 0 .198-.029.312-.057.113-.029.34-.114.652-.199v-.028c-.511-.113-.936-.34-1.219-.624-.284-.283-.425-.68-.567-1.162-.17-.765-.085-1.332.17-1.757.283-.425.85-.737 1.672-.936l4.479-1.077.255 1.134zm-5.584 6.463l5.244-.567c.454-.085.992-.17 1.587-.255l.114 1.105c-.794.114-1.276.142-1.417.171l.028.028c.595.113 1.02.283 1.247.51.227.227.397.539.454.964 0 .142-.029.34-.029.453l-1.048.114c.028-.142 0-.34 0-.567-.057-.51-.284-.85-.738-1.049-.425-.198-1.048-.255-1.785-.17l-3.572.397-.085-1.134zm3.515 4.082c-.822 0-1.417.17-1.814.482-.454.312-.681.793-.681 1.445 0 .482.114.879.312 1.191.199.283.454.482.709.595l-.255.964c-1.106-.368-1.644-1.304-1.644-2.778.028-1.02.368-1.786.963-2.296.596-.51 1.503-.794 2.693-.794 1.134 0 2.013.284 2.608.822.624.539.907 1.276.907 2.268 0 2.013-1.219 3.033-3.713 3.033l-.142-.028.057-4.904zm.85 3.742c.709-.057 1.248-.284 1.588-.539.34-.312.51-.765.51-1.332 0-.539-.198-.992-.539-1.304-.396-.34-.878-.51-1.559-.539v3.714z"
            fill="#fff" fill-rule="evenodd" />
    </g>
    <g clip-path="url(#prefix__y)">
        <path
            d="M718.526 340.469l-2.438-1.445-3.203 2.522.794 2.722-.964.765-2.665-9.298 1.078-.85 8.39 4.819-.992.765zm-7.37-4.45l.057.198c.113.312.255.766.453 1.361l.936 3.005 2.607-2.07-2.721-1.615c-.283-.17-.595-.369-.907-.567l-.425-.312zm8.589 3.401l-6.095-7.2.879-.708 6.095 7.2-.879.708zm2.041-1.785l-6.435-6.917.822-.765 6.435 6.888-.822.794zm3.43-8.278c.85.823 1.304 1.645 1.36 2.438.057.822-.283 1.531-.963 2.24-.709.737-1.503 1.077-2.268 1.02-.794-.057-1.616-.51-2.466-1.304-1.701-1.644-1.814-3.26-.369-4.734.737-.737 1.474-1.077 2.24-1.048.765.056 1.587.51 2.466 1.388zm-.851.823c-.68-.652-1.247-1.049-1.785-1.134-.482-.085-.993.085-1.446.567-.482.481-.652.992-.567 1.502.113.51.51 1.105 1.19 1.757.652.624 1.219.993 1.758 1.106.539.085 1.02-.057 1.446-.482.482-.482.68-1.049.567-1.531-.114-.51-.482-1.105-1.163-1.785zm7.597.651c-.51.567-.992.964-1.502 1.078-.51.141-1.049.113-1.531-.142l.624-.992c.312.17.595.198.878.085.312-.114.596-.312.879-.624.709-.879.567-1.701-.425-2.579l-.85-.709c.17.454.255.907.17 1.332-.057.454-.255.822-.596 1.219-.51.652-1.162.964-1.842.879-.709-.057-1.502-.482-2.41-1.247-.935-.766-1.445-1.531-1.615-2.24-.199-.68 0-1.36.538-2.012a2.528 2.528 0 011.106-.737c.397-.142.794-.17 1.247-.057v-.028c-.085-.057-.255-.227-.482-.426-.255-.198-.34-.34-.368-.34l.708-.85c.17.17.539.482 1.078.964l4.025 3.373c1.474 1.247 1.587 2.579.368 4.053zm-3.6-5.3c-.425-.34-.85-.596-1.275-.737-.397-.142-.766-.199-1.106-.114a1.675 1.675 0 00-.85.511c-.369.425-.454.907-.312 1.417.142.453.567 1.02 1.304 1.616.737.623 1.304.963 1.786 1.02.482.085.907-.113 1.304-.567.226-.283.368-.567.396-.935 0-.369-.113-.766-.311-1.106-.199-.368-.511-.708-.936-1.105zm4.167.368l-4.252-3.175c-.397-.283-.85-.567-1.304-.907l.652-.878c.652.453 1.021.737 1.134.793l.028-.028c-.368-.482-.567-.879-.623-1.191 0-.34.085-.68.368-1.02.085-.113.199-.227.312-.312l.85.624a2.928 2.928 0 00-.425.425c-.283.397-.34.822-.141 1.247.17.454.566.907 1.19 1.361l2.863 2.126-.652.935zm3.317-4.507c-.369.567-.822.907-1.304.992-.482.085-.992-.085-1.531-.425-.595-.368-.935-.879-.992-1.474-.085-.595.17-1.332.709-2.211l.85-1.332-.312-.199c-.482-.312-.879-.425-1.19-.34-.341.028-.652.312-.936.709-.283.425-.425.794-.397 1.077 0 .283.17.567.482.85l-.765.907c-.936-.85-.936-1.955-.029-3.344.454-.709.993-1.134 1.56-1.276.566-.142 1.19 0 1.814.425l2.466 1.616c.283.198.538.283.709.312.198.028.34-.057.481-.284.057-.085.114-.198.199-.34l.567.397c-.057.283-.199.51-.369.794-.227.368-.51.538-.793.567-.284.028-.652-.057-1.049-.284l-.029.028c.284.539.397 1.049.341 1.446 0 .454-.199.936-.482 1.389zm-.567-.68c.255-.369.34-.766.397-1.106 0-.397-.057-.765-.256-1.105-.17-.312-.396-.624-.708-.794l-.425-.312-.709 1.077c-.284.454-.454.822-.539 1.106-.056.255-.056.567.057.794.085.226.284.453.539.623.34.227.652.312.907.255.283-.085.538-.255.737-.538zm-1.276-7.881l5.216 3.005-.539.992-5.215-3.033-.511.851-.708-.426.482-.822-.681-.396c-.538-.312-.878-.652-.964-1.021-.085-.397 0-.822.284-1.332.17-.227.312-.454.482-.652l.708.453c-.113.142-.198.284-.283.426-.113.226-.198.453-.142.623.085.227.284.397.624.595l.567.312.652-1.162.68.425-.652 1.162zm7.399-.992c-.114.341-.227.737-.426 1.078-.425.793-1.105.963-2.012.481l-4.054-2.182-.368.68-.737-.397.425-.737-1.219-1.02.397-.681 1.332.737.595-1.105.709.368-.567 1.134 3.77 2.07c.312.141.567.226.737.17.17-.029.284-.142.425-.397.085-.142.142-.34.256-.624l.737.425z"
            fill="#fff" fill-rule="evenodd" />
        <path stroke-width="20.012" stroke-linecap="round" stroke-linejoin="round" fill="none" stroke="#00a3ad"
            d="M595.219 335.083h0l-1.814-1.757-1.758-1.814-1.729-1.843-1.644-1.871-1.616-1.927-1.53-1.984-1.503-2.013-1.417-2.069-1.389-2.126-1.332-2.126-1.248-2.183-1.19-2.211-1.134-2.239-1.049-2.268-1.02-2.296" />
        <path
            d="M579.572 320.457l7.398-5.074 3.827 5.584-.822.595-3.147-4.62-2.381 1.587 2.948 4.309-.822.595-2.919-4.337-2.608 1.758 3.288 4.847-.822.567-3.94-5.811zm5.527 7.852l7.03-5.585.737.964-7.03 5.584-.737-.963z"
            fill="#fff" fill-rule="evenodd" /><text fill="#63666a" transform="translate(0 540)" font-size="7.002"
            font-family="DejaVuSans">
            <tspan y="-170.391" x="491.414 497.415 502.918 508.121 513.519 518.316 520.318 524.722">MONOVISC</tspan>
        </text><text fill="#63666a" transform="translate(0 540)" font-size="4.11" font-family="DejaVuSans">
            <tspan y="-172.488" x="529.512">®</tspan>
        </text><text fill="#63666a" transform="translate(0 540)" font-size="7.002" font-family="DejaVuSans">
            <tspan y="-170.391" x="533.594"></tspan>
        </text><text fill="#63666a" transform="translate(0 540)" font-size="7.002" font-family="DejaVuSans">
            <tspan y="-162.113"
                x="491.414 ">
                Viscosupplement</tspan>
        </text>
        <mask id="prefix__A">
            <use xlink:href="#prefix__b" width="238" height="58"
                transform="matrix(.48094 0 0 .47993 599.584 256.564)" />
        </mask>
        <g mask="url(#prefix__A)">
            <use xlink:href="#prefix__B" width="238" height="58"
                transform="matrix(.48094 0 0 .47993 599.584 256.564)" />
        </g>
        <mask id="prefix__C">
            <use xlink:href="#prefix__g" width="224" height="16"
                transform="matrix(.24955 0 0 .23919 725.499 422.305)" />
        </mask>
        <g mask="url(#prefix__C)">
            <use xlink:href="#prefix__i" width="224" height="16"
                transform="matrix(.24955 0 0 .23919 725.499 422.305)" />
        </g>
        <mask id="prefix__D">
            <use xlink:href="#prefix__g" width="224" height="16"
                transform="matrix(.24955 0 0 .23919 769.521 375.137)" />
        </mask>
        <g mask="url(#prefix__D)">
            <use xlink:href="#prefix__i" width="224" height="16"
                transform="matrix(.24955 0 0 .23919 769.521 375.137)" />
        </g>
            </g>
</svg>
